<?xml version="1.0" encoding="UTF-8" standalone="no"?>
<!DOCTYPE svg PUBLIC "-//W3C//DTD SVG 1.1//EN" "http://www.w3.org/Graphics/SVG/1.1/DTD/svg11.dtd">
<svg width="100%" height="100%" viewBox="0 0 2424 2500" version="1.1" xmlns="http://www.w3.org/2000/svg" xmlns:xlink="http://www.w3.org/1999/xlink" xml:space="preserve" xmlns:serif="http://www.serif.com/" style="fill-rule:evenodd;clip-rule:evenodd;stroke-linejoin:round;stroke-miterlimit:2;">
    <path d="M2422.67,566.964C2423.55,570.299 2424,573.737 2423.99,577.188L2423.99,1112.96C2424,1126.95 2416.51,1139.91 2404.38,1146.88L1954.74,1405.75L1954.74,1918.91C1954.75,1932.87 1947.31,1945.81 1935.25,1952.83L996.98,2493.18C994.785,2494.34 992.49,2495.31 990.124,2496.07C989.282,2496.07 988.44,2496.91 987.477,2497.15C980.933,2498.87 974.054,2498.87 967.509,2497.15C966.427,2497.15 965.464,2496.31 964.382,2495.83C962.144,2495.13 959.971,2494.25 957.886,2493.18L19.618,1952.83C7.494,1945.86 0,1932.9 0.011,1918.91L0.011,312.068C0.008,308.616 0.453,305.18 1.334,301.843C1.334,300.76 2.296,299.678 2.657,298.595C3.328,296.522 4.173,294.51 5.183,292.58C5.994,291.365 6.878,290.2 7.83,289.092C8.881,287.486 10.047,285.959 11.318,284.521C12.539,283.479 13.825,282.514 15.168,281.634C16.512,280.389 17.96,279.262 19.498,278.266L488.632,8.093C500.719,1.143 515.639,1.143 527.726,8.093L996.86,278.266C998.366,279.305 999.812,280.43 1001.19,281.634C1002.52,282.529 1003.81,283.492 1005.04,284.521C1006.3,285.97 1007.46,287.497 1008.53,289.092C1009.48,290.2 1010.36,291.365 1011.18,292.58C1012.18,294.515 1013.02,296.526 1013.7,298.595C1013.7,299.678 1014.78,300.76 1015.02,301.963C1015.91,305.299 1016.36,308.736 1016.35,312.188L1016.35,1316.13L1407.41,1090.95L1407.41,576.707C1407.41,573.296 1407.86,569.899 1408.74,566.603C1408.74,565.4 1409.7,564.437 1410.06,563.235C1410.75,561.17 1411.6,559.16 1412.59,557.22C1413.31,555.897 1414.39,554.934 1415.23,553.732C1416.28,552.127 1417.45,550.599 1418.72,549.161C1419.94,548.117 1421.23,547.153 1422.57,546.274C1423.93,545.052 1425.38,543.926 1426.9,542.905L1896.03,272.732C1908.11,265.758 1923.05,265.758 1935.13,272.732L2404.26,542.905C2405.82,543.931 2407.3,545.056 2408.71,546.274C2409.91,547.236 2411.36,548.078 2412.44,549.161C2413.7,550.61 2414.86,552.136 2415.93,553.732C2416.9,554.827 2417.78,555.993 2418.58,557.22C2419.59,559.15 2420.43,561.162 2421.1,563.235C2421.71,564.438 2422.24,565.684 2422.67,566.964ZM2345.8,1090.35L2345.8,645.273L2181.6,739.821L1954.74,870.457L1954.74,1315.53L2345.92,1090.35L2345.8,1090.35ZM1876.67,1896.3L1876.67,1450.5L1653.53,1577.89L1015.99,1941.53L1015.99,2391.53L1876.67,1896.3ZM77.598,379.19L77.598,1896.3L937.918,2391.53L937.918,1941.65L488.512,1687.23C485.871,1685.22 483.224,1683.21 480.572,1681.22C479.395,1679.93 478.31,1678.56 477.324,1677.13C476.289,1675.9 475.325,1674.62 474.437,1673.28C473.616,1671.69 472.932,1670.05 472.393,1668.35C471.669,1666.91 471.065,1665.43 470.588,1663.89C470.204,1662.03 469.963,1660.14 469.866,1658.24C469.769,1656.76 469.769,1655.27 469.866,1653.79L469.866,604.374L242.998,473.738L78.801,379.31L77.598,379.19ZM507.758,86.522L117.054,312.068L507.999,537.131L898.943,312.068L507.999,87.004L507.758,86.522ZM711.17,1490.92L938.038,1360.4L938.038,379.19L773.841,473.738L546.853,604.374L546.853,1585.71L711.17,1490.92ZM1915.64,352.004L1524.45,576.707L1915.4,801.771L2306.35,576.707L1915.64,352.004ZM1876.55,869.254L1649.68,738.618L1485.48,644.07L1485.48,1089.15L1712.35,1219.66L1876.67,1314.21L1876.55,869.254ZM977.012,1873.2L1550.44,1545.89L1837.21,1382.65L1446.63,1157.71L996.86,1416.7L586.188,1653.07L977.012,1873.2Z" style="fill:white;fill-rule:nonzero;"/>
</svg>
